<svg width="17" height="19" viewBox="0 0 17 19" fill="none" xmlns="http://www.w3.org/2000/svg">
<path d="M7.6 19C7.0775 19 6.63021 18.814 6.25812 18.4419C5.88604 18.0698 5.7 17.6225 5.7 17.1H9.5C9.5 17.6225 9.31396 18.0698 8.94187 18.4419C8.56979 18.814 8.1225 19 7.6 19ZM0 16.15V14.25H1.9V7.6C1.9 6.28583 2.29583 5.11812 3.0875 4.09687C3.87917 3.07562 4.90833 2.40667 6.175 2.09V1.425C6.175 1.02917 6.31354 0.692708 6.59062 0.415625C6.86771 0.138542 7.20417 0 7.6 0C7.99583 0 8.33229 0.138542 8.60937 0.415625C8.88646 0.692708 9.025 1.02917 9.025 1.425V1.73375C8.85083 2.08208 8.72417 2.43833 8.645 2.8025C8.56583 3.16667 8.53417 3.53875 8.55 3.91875C8.39167 3.88708 8.23729 3.85937 8.08687 3.83562C7.93646 3.81187 7.77417 3.8 7.6 3.8C6.555 3.8 5.66042 4.17208 4.91625 4.91625C4.17208 5.66042 3.8 6.555 3.8 7.6V14.25H11.4V8.14625C11.685 8.27292 11.9898 8.37187 12.3144 8.44312C12.639 8.51437 12.9675 8.55 13.3 8.55V14.25H15.2V16.15H0ZM13.3 6.65C12.5083 6.65 11.8354 6.37292 11.2812 5.81875C10.7271 5.26458 10.45 4.59167 10.45 3.8C10.45 3.00833 10.7271 2.33542 11.2812 1.78125C11.8354 1.22708 12.5083 0.95 13.3 0.95C14.0917 0.95 14.7646 1.22708 15.3187 1.78125C15.8729 2.33542 16.15 3.00833 16.15 3.8C16.15 4.59167 15.8729 5.26458 15.3187 5.81875C14.7646 6.37292 14.0917 6.65 13.3 6.65Z" fill="#1B2831"/>
<circle cx="13.2999" cy="3.42" r="3.42" fill="#1B2831"/>
</svg>
